<svg xmlns="http://www.w3.org/2000/svg" width="30" height="34.285" viewBox="0 0 30 34.285">
  <path id="Icon_awesome-book" data-name="Icon awesome-book" d="M30,24.107V1.607A1.6,1.6,0,0,0,28.393,0H6.429A6.43,6.43,0,0,0,0,6.429V27.857a6.43,6.43,0,0,0,6.429,6.429H28.393A1.6,1.6,0,0,0,30,32.679V31.607a1.62,1.62,0,0,0-.6-1.252,14.934,14.934,0,0,1,0-5A1.6,1.6,0,0,0,30,24.107ZM8.571,8.973a.4.4,0,0,1,.4-.4h14.2a.4.4,0,0,1,.4.4v1.339a.4.4,0,0,1-.4.4H8.973a.4.4,0,0,1-.4-.4Zm0,4.286a.4.4,0,0,1,.4-.4h14.2a.4.4,0,0,1,.4.4V14.6a.4.4,0,0,1-.4.4H8.973a.4.4,0,0,1-.4-.4ZM25.54,30H6.429a2.143,2.143,0,1,1,0-4.286H25.54A24.108,24.108,0,0,0,25.54,30Z"/>
</svg>
